<svg xmlns="http://www.w3.org/2000/svg" width="26.638" height="26.638" viewBox="0 0 26.638 26.638">
  <g id="tabler-icon-bell_4_" data-name="tabler-icon-bell (4)" opacity="0.5">
    <path id="Path_9511" data-name="Path 9511" d="M0,0H26.638V26.638H0Z" fill="none"/>
    <path id="Path_9512" data-name="Path 9512" d="M10.659,5.22a2.22,2.22,0,0,1,4.44,0,7.769,7.769,0,0,1,4.44,6.659v3.33a4.44,4.44,0,0,0,2.22,3.33H4a4.44,4.44,0,0,0,2.22-3.33v-3.33a7.769,7.769,0,0,1,4.44-6.659" transform="translate(0.44 0.33)" fill="none" stroke="#191919" stroke-linecap="round" stroke-linejoin="round" stroke-width="1.5"/>
    <path id="Path_9513" data-name="Path 9513" d="M9,17v1.11a3.33,3.33,0,0,0,6.659,0V17" transform="translate(0.989 1.868)" fill="none" stroke="#191919" stroke-linecap="round" stroke-linejoin="round" stroke-width="1.5"/>
  </g>
</svg>
